<svg width="300" height="400" viewBox="0 0 300 400" xmlns="http://www.w3.org/2000/svg">
  <!-- Background -->
  <rect width="300" height="400" fill="#0f172a"/>
  
  <!-- Tech Grid Pattern -->
  <defs>
    <pattern id="grid" width="20" height="20" patternUnits="userSpaceOnUse">
      <path d="M 20 0 L 0 0 0 20" fill="none" stroke="#1e293b" stroke-width="0.5"/>
    </pattern>
    <linearGradient id="techGradient" x1="0%" y1="0%" x2="100%" y2="100%">
      <stop offset="0%" style="stop-color:#0ea5e9;stop-opacity:1" />
      <stop offset="100%" style="stop-color:#3b82f6;stop-opacity:1" />
    </linearGradient>
  </defs>
  
  <rect width="300" height="400" fill="url(#grid)"/>
  
  <!-- Header Section -->
  <rect x="0" y="0" width="300" height="100" fill="url(#techGradient)"/>
  
  <!-- Terminal-style Header -->
  <rect x="20" y="20" width="260" height="60" fill="#1e293b" rx="8" stroke="#0ea5e9" stroke-width="1"/>
  
  <!-- Terminal Dots -->
  <circle cx="35" cy="35" r="3" fill="#ef4444"/>
  <circle cx="50" cy="35" r="3" fill="#f59e0b"/>
  <circle cx="65" cy="35" r="3" fill="#10b981"/>
  
  <!-- Name in Terminal Style -->
  <rect x="30" y="50" width="120" height="12" fill="#0ea5e9" rx="2"/>
  <rect x="160" y="50" width="8" height="12" fill="#0ea5e9" opacity="0.7"/> <!-- Cursor -->
  
  <!-- Title -->
  <rect x="30" y="65" width="80" height="8" fill="#64748b" rx="2"/>
  
  <!-- Main Content -->
  <rect x="20" y="120" width="260" height="260" fill="#1e293b" rx="8" stroke="#334155" stroke-width="1"/>
  
  <!-- Code Editor Style Layout -->
  <!-- Line Numbers -->
  <rect x="30" y="140" width="20" height="220" fill="#0f172a" rx="2"/>
  
  <!-- Line Number Text -->
  <rect x="33" y="150" width="8" height="6" fill="#475569" rx="1"/>
  <rect x="33" y="165" width="8" height="6" fill="#475569" rx="1"/>
  <rect x="33" y="180" width="8" height="6" fill="#475569" rx="1"/>
  <rect x="33" y="195" width="8" height="6" fill="#475569" rx="1"/>
  <rect x="33" y="210" width="8" height="6" fill="#475569" rx="1"/>
  
  <!-- Code Content -->
  <!-- Experience Section -->
  <rect x="60" y="150" width="80" height="8" fill="#0ea5e9" rx="2"/> <!-- Section Header -->
  
  <!-- Code-like Experience Entries -->
  <rect x="70" y="170" width="4" height="60" fill="#3b82f6" rx="2"/> <!-- Indent Line -->
  
  <rect x="80" y="175" width="100" height="6" fill="#e2e8f0" rx="1"/>
  <rect x="80" y="185" width="80" height="5" fill="#10b981" rx="1"/>
  <rect x="80" y="195" width="120" height="4" fill="#64748b" rx="1"/>
  <rect x="80" y="205" width="110" height="4" fill="#64748b" rx="1"/>
  
  <rect x="80" y="220" width="90" height="6" fill="#e2e8f0" rx="1"/>
  <rect x="80" y="230" width="70" height="5" fill="#10b981" rx="1"/>
  <rect x="80" y="240" width="100" height="4" fill="#64748b" rx="1"/>
  
  <!-- Skills Section -->
  <rect x="60" y="260" width="60" height="8" fill="#0ea5e9" rx="2"/>
  
  <!-- Tech Stack Icons/Bars -->
  <rect x="70" y="280" width="4" height="60" fill="#3b82f6" rx="2"/>
  
  <!-- Programming Languages -->
  <rect x="80" y="285" width="40" height="12" fill="#f59e0b" rx="6"/>
  <rect x="130" y="285" width="35" height="12" fill="#10b981" rx="6"/>
  <rect x="175" y="285" width="45" height="12" rx="6" fill="#8b5cf6"/>
  
  <rect x="80" y="305" width="50" height="12" fill="#ef4444" rx="6"/>
  <rect x="140" y="305" width="30" height="12" fill="#06b6d4" rx="6"/>
  <rect x="180" y="305" width="40" height="12" fill="#84cc16" rx="6"/>
  
  <!-- Right Panel - Projects/Portfolio -->
  <rect x="200" y="140" width="70" height="140" fill="#0f172a" rx="4" stroke="#334155" stroke-width="1"/>
  
  <!-- Project Cards -->
  <rect x="210" y="155" width="50" height="30" fill="#1e293b" rx="4" stroke="#0ea5e9" stroke-width="1"/>
  <rect x="215" y="160" width="40" height="6" fill="#0ea5e9" rx="1"/>
  <rect x="215" y="170" width="30" height="4" fill="#64748b" rx="1"/>
  
  <rect x="210" y="195" width="50" height="30" fill="#1e293b" rx="4" stroke="#10b981" stroke-width="1"/>
  <rect x="215" y="200" width="35" height="6" fill="#10b981" rx="1"/>
  <rect x="215" y="210" width="25" height="4" fill="#64748b" rx="1"/>
  
  <rect x="210" y="235" width="50" height="30" fill="#1e293b" rx="4" stroke="#f59e0b" stroke-width="1"/>
  <rect x="215" y="240" width="30" height="6" fill="#f59e0b" rx="1"/>
  <rect x="215" y="250" width="35" height="4" fill="#64748b" rx="1"/>
  
  <!-- Tech Decorative Elements -->
  <circle cx="280" cy="140" r="4" fill="#0ea5e9" opacity="0.6"/>
  <rect x="275" y="160" width="8" height="8" fill="#10b981" opacity="0.6" rx="2"/>
  <polygon points="280,180 285,185 280,190 275,185" fill="#f59e0b" opacity="0.6"/>
</svg>