<svg width="300" height="400" viewBox="0 0 300 400" xmlns="http://www.w3.org/2000/svg">
  <!-- Background -->
  <rect width="300" height="400" fill="#ffffff"/>
  
  <!-- Header with gradient -->
  <defs>
    <linearGradient id="modernGradient" x1="0%" y1="0%" x2="100%" y2="100%">
      <stop offset="0%" style="stop-color:#667eea;stop-opacity:1" />
      <stop offset="100%" style="stop-color:#764ba2;stop-opacity:1" />
    </linearGradient>
  </defs>
  
  <rect x="0" y="0" width="300" height="120" fill="url(#modernGradient)"/>
  
  <!-- Profile Photo -->
  <circle cx="60" cy="60" r="30" fill="#ffffff" opacity="0.9"/>
  <circle cx="60" cy="60" r="25" fill="#f1f5f9"/>
  
  <!-- Name -->
  <rect x="110" y="35" width="140" height="16" fill="#ffffff" rx="3"/>
  
  <!-- Title -->
  <rect x="110" y="60" width="100" height="10" fill="#ffffff" opacity="0.8" rx="2"/>
  
  <!-- Contact Info -->
  <rect x="110" y="80" width="120" height="8" fill="#ffffff" opacity="0.7" rx="2"/>
  
  <!-- Main Content Area -->
  <rect x="20" y="140" width="260" height="240" fill="#fafafa" stroke="#e5e7eb" stroke-width="1" rx="8"/>
  
  <!-- Two Column Layout -->
  <!-- Left Column -->
  <rect x="30" y="160" width="120" height="200" fill="#ffffff" rx="6"/>
  
  <!-- Experience Section -->
  <rect x="40" y="175" width="80" height="12" fill="#1f2937" rx="2"/>
  
  <!-- Experience Items -->
  <rect x="40" y="200" width="90" height="8" fill="#374151" rx="2"/>
  <rect x="40" y="215" width="70" height="6" fill="#6b7280" rx="1"/>
  <rect x="40" y="230" width="100" height="4" fill="#9ca3af" rx="1"/>
  <rect x="40" y="238" width="95" height="4" fill="#9ca3af" rx="1"/>
  
  <rect x="40" y="260" width="85" height="8" fill="#374151" rx="2"/>
  <rect x="40" y="275" width="65" height="6" fill="#6b7280" rx="1"/>
  <rect x="40" y="290" width="90" height="4" fill="#9ca3af" rx="1"/>
  <rect x="40" y="298" width="80" height="4" fill="#9ca3af" rx="1"/>
  
  <!-- Right Column -->
  <rect x="170" y="160" width="100" height="200" fill="#ffffff" rx="6"/>
  
  <!-- Skills Section -->
  <rect x="180" y="175" width="50" height="12" fill="#1f2937" rx="2"/>
  
  <!-- Modern Skill Bars -->
  <rect x="180" y="200" width="80" height="6" fill="#e5e7eb" rx="3"/>
  <rect x="180" y="200" width="65" height="6" fill="#3b82f6" rx="3"/>
  
  <rect x="180" y="220" width="80" height="6" fill="#e5e7eb" rx="3"/>
  <rect x="180" y="220" width="70" height="6" fill="#10b981" rx="3"/>
  
  <rect x="180" y="240" width="80" height="6" fill="#e5e7eb" rx="3"/>
  <rect x="180" y="240" width="55" height="6" fill="#f59e0b" rx="3"/>
  
  <rect x="180" y="260" width="80" height="6" fill="#e5e7eb" rx="3"/>
  <rect x="180" y="260" width="60" height="6" fill="#8b5cf6" rx="3"/>
  
  <!-- Education Section -->
  <rect x="180" y="290" width="60" height="12" fill="#1f2937" rx="2"/>
  
  <rect x="180" y="315" width="70" height="8" fill="#374151" rx="2"/>
  <rect x="180" y="330" width="60" height="6" fill="#6b7280" rx="1"/>
  
  <!-- Modern accent elements -->
  <circle cx="280" cy="140" r="8" fill="#667eea" opacity="0.3"/>
  <circle cx="270" cy="160" r="4" fill="#764ba2" opacity="0.5"/>
</svg>