<svg width="300" height="400" viewBox="0 0 300 400" xmlns="http://www.w3.org/2000/svg">
  <!-- Background -->
  <rect width="300" height="400" fill="#ffffff"/>
  
  <!-- Education Header -->
  <rect x="0" y="0" width="300" height="80" fill="#059669"/>
  
  <!-- Academic Cap Icon -->
  <rect x="25" y="25" width="30" height="20" fill="#ffffff" rx="3"/>
  <polygon points="25,35 40,25 55,35 55,40 25,40" fill="#ffffff"/>
  <rect x="38" y="45" width="4" height="10" fill="#ffffff"/>
  
  <!-- Educator Name -->
  <rect x="70" y="25" width="180" height="16" fill="#ffffff" rx="2"/>
  <rect x="70" y="45" width="140" height="12" fill="#ffffff" opacity="0.9" rx="2"/>
  
  <!-- Contact Information -->
  <rect x="20" y="90" width="260" height="25" fill="#ecfdf5" stroke="#059669" stroke-width="1"/>
  
  <!-- Contact Details -->
  <circle cx="35" cy="102" r="3" fill="#059669"/>
  <rect x="45" y="99" width="70" height="6" fill="#047857" rx="1"/>
  
  <circle cx="130" cy="102" r="3" fill="#059669"/>
  <rect x="140" y="99" width="60" height="6" fill="#047857" rx="1"/>
  
  <circle cx="220" cy="102" r="3" fill="#059669"/>
  <rect x="230" y="99" width="50" height="6" fill="#047857" rx="1"/>
  
  <!-- Teaching Philosophy -->
  <rect x="20" y="135" width="160" height="12" fill="#059669" rx="2"/>
  <line x1="20" y1="155" x2="280" y2="155" stroke="#059669" stroke-width="2"/>
  
  <rect x="20" y="170" width="260" height="6" fill="#374151" rx="1"/>
  <rect x="20" y="180" width="240" height="6" fill="#374151" rx="1"/>
  <rect x="20" y="190" width="220" height="6" fill="#374151" rx="1"/>
  
  <!-- Teaching Experience -->
  <rect x="20" y="215" width="140" height="12" fill="#059669" rx="2"/>
  <line x1="20" y1="235" x2="280" y2="235" stroke="#059669" stroke-width="2"/>
  
  <!-- Experience Entry 1 -->
  <rect x="20" y="250" width="150" height="10" fill="#1f2937" rx="2"/>
  <rect x="20" y="265" width="120" height="8" fill="#4b5563" rx="1"/>
  <rect x="20" y="280" width="230" height="5" fill="#6b7280" rx="1"/>
  <rect x="20" y="290" width="210" height="5" fill="#6b7280" rx="1"/>
  <rect x="20" y="300" width="190" height="5" fill="#6b7280" rx="1"/>
  
  <!-- Experience Entry 2 -->
  <rect x="20" y="320" width="140" height="10" fill="#1f2937" rx="2"/>
  <rect x="20" y="335" width="110" height="8" fill="#4b5563" rx="1"/>
  <rect x="20" y="350" width="220" height="5" fill="#6b7280" rx="1"/>
  <rect x="20" y="360" width="200" height="5" fill="#6b7280" rx="1"/>
  
  <!-- Education & Qualifications Sidebar -->
  <rect x="200" y="135" width="80" height="240" fill="#ecfdf5" stroke="#059669" stroke-width="1"/>
  
  <!-- Academic Qualifications -->
  <rect x="210" y="150" width="60" height="10" fill="#059669" rx="2"/>
  <line x1="210" y1="170" x2="270" y2="170" stroke="#059669" stroke-width="1"/>
  
  <rect x="210" y="185" width="55" height="8" fill="#1f2937" rx="1"/>
  <rect x="210" y="200" width="50" height="6" fill="#4b5563" rx="1"/>
  <rect x="210" y="215" width="45" height="8" fill="#1f2937" rx="1"/>
  <rect x="210" y="230" width="40" height="6" fill="#4b5563" rx="1"/>
  
  <!-- Teaching Skills -->
  <rect x="210" y="255" width="50" height="10" fill="#059669" rx="2"/>
  <line x1="210" y1="275" x2="270" y2="275" stroke="#059669" stroke-width="1"/>
  
  <rect x="210" y="290" width="55" height="6" fill="#1f2937" rx="1"/>
  <rect x="210" y="305" width="50" height="6" fill="#1f2937" rx="1"/>
  <rect x="210" y="320" width="45" height="6" fill="#1f2937" rx="1"/>
  
  <!-- Certifications -->
  <rect x="210" y="345" width="60" height="10" fill="#059669" rx="2"/>
  <line x1="210" y1="365" x2="270" y2="365" stroke="#059669" stroke-width="1"/>
  
  <!-- Academic Icons -->
  <circle cx="270" cy="190" r="4" fill="#059669" opacity="0.3"/>
  <rect x="266" y="210" width="8" height="8" fill="#059669" opacity="0.3" rx="2"/>
  <polygon points="270,240 275,245 270,250 265,245" fill="#059669" opacity="0.3"/>
  
  <!-- Education Border Accents -->
  <rect x="0" y="0" width="300" height="3" fill="#059669"/>
  <rect x="0" y="397" width="300" height="3" fill="#059669"/>
  
  <!-- Book Icon (simplified) -->
  <rect x="260" y="30" width="12" height="16" fill="#ffffff" opacity="0.8" rx="1"/>
  <rect x="262" y="32" width="8" height="12" fill="#059669" opacity="0.6" rx="1"/>
  <line x1="266" y1="32" x2="266" y2="44" stroke="#ffffff" stroke-width="1" opacity="0.8"/>
</svg>