<svg width="300" height="400" viewBox="0 0 300 400" xmlns="http://www.w3.org/2000/svg">
  <!-- Background -->
  <rect width="300" height="400" fill="#ffffff"/>
  
  <!-- Classic Border -->
  <rect x="10" y="10" width="280" height="380" fill="none" stroke="#2d3748" stroke-width="2"/>
  <rect x="15" y="15" width="270" height="370" fill="none" stroke="#2d3748" stroke-width="1"/>
  
  <!-- Header Section -->
  <rect x="25" y="30" width="250" height="80" fill="#f7fafc"/>
  
  <!-- Name (Classic Typography Style) -->
  <rect x="40" y="45" width="180" height="20" fill="#2d3748" rx="2"/>
  
  <!-- Divider Line -->
  <line x1="40" y1="75" x2="260" y2="75" stroke="#4a5568" stroke-width="1"/>
  
  <!-- Professional Title -->
  <rect x="40" y="85" width="120" height="12" fill="#4a5568" rx="2"/>
  
  <!-- Contact Information -->
  <rect x="40" y="130" width="100" height="8" fill="#718096" rx="1"/>
  <rect x="40" y="145" width="120" height="8" fill="#718096" rx="1"/>
  <rect x="40" y="160" width="90" height="8" fill="#718096" rx="1"/>
  
  <!-- Section: Professional Experience -->
  <rect x="40" y="190" width="140" height="14" fill="#2d3748" rx="2"/>
  <line x1="40" y1="210" x2="260" y2="210" stroke="#e2e8f0" stroke-width="1"/>
  
  <!-- Experience Entry 1 -->
  <rect x="40" y="225" width="120" height="10" fill="#4a5568" rx="2"/>
  <rect x="40" y="240" width="100" height="8" fill="#718096" rx="1"/>
  <rect x="40" y="255" width="200" height="6" fill="#a0aec0" rx="1"/>
  <rect x="40" y="265" width="180" height="6" fill="#a0aec0" rx="1"/>
  <rect x="40" y="275" width="190" height="6" fill="#a0aec0" rx="1"/>
  
  <!-- Experience Entry 2 -->
  <rect x="40" y="295" width="110" height="10" fill="#4a5568" rx="2"/>
  <rect x="40" y="310" width="90" height="8" fill="#718096" rx="1"/>
  <rect x="40" y="325" width="185" height="6" fill="#a0aec0" rx="1"/>
  <rect x="40" y="335" width="170" height="6" fill="#a0aec0" rx="1"/>
  
  <!-- Section: Education -->
  <rect x="40" y="360" width="80" height="14" fill="#2d3748" rx="2"/>
  <line x1="40" y1="380" x2="180" y2="380" stroke="#e2e8f0" stroke-width="1"/>
  
  <!-- Right Column -->
  <!-- Section: Skills -->
  <rect x="200" y="190" width="60" height="14" fill="#2d3748" rx="2"/>
  <line x1="200" y1="210" x2="260" y2="210" stroke="#e2e8f0" stroke-width="1"/>
  
  <!-- Skills List -->
  <rect x="200" y="225" width="50" height="8" fill="#4a5568" rx="1"/>
  <rect x="200" y="240" width="45" height="8" fill="#4a5568" rx="1"/>
  <rect x="200" y="255" width="55" height="8" fill="#4a5568" rx="1"/>
  <rect x="200" y="270" width="40" height="8" fill="#4a5568" rx="1"/>
  <rect x="200" y="285" width="48" height="8" fill="#4a5568" rx="1"/>
  
  <!-- Section: Languages -->
  <rect x="200" y="310" width="60" height="14" fill="#2d3748" rx="2"/>
  <line x1="200" y1="330" x2="260" y2="330" stroke="#e2e8f0" stroke-width="1"/>
  
  <!-- Languages List -->
  <rect x="200" y="345" width="45" height="8" fill="#4a5568" rx="1"/>
  <rect x="200" y="360" width="50" height="8" fill="#4a5568" rx="1"/>
  
  <!-- Classic Decorative Elements -->
  <!-- Corner Ornaments -->
  <circle cx="30" cy="30" r="3" fill="#2d3748"/>
  <circle cx="270" cy="30" r="3" fill="#2d3748"/>
  <circle cx="30" cy="370" r="3" fill="#2d3748"/>
  <circle cx="270" cy="370" r="3" fill="#2d3748"/>
  
  <!-- Professional Seal/Badge -->
  <circle cx="250" cy="60" r="15" fill="none" stroke="#4a5568" stroke-width="1"/>
  <circle cx="250" cy="60" r="10" fill="#e2e8f0"/>
</svg>