<svg width="300" height="400" viewBox="0 0 300 400" xmlns="http://www.w3.org/2000/svg">
  <!-- Background -->
  <rect width="300" height="400" fill="#ffffff"/>
  
  <!-- Medical Header -->
  <rect x="0" y="0" width="300" height="70" fill="#0ea5e9"/>
  
  <!-- Medical Cross Icon -->
  <rect x="25" y="20" width="8" height="30" fill="#ffffff" rx="2"/>
  <rect x="17" y="28" width="24" height="8" fill="#ffffff" rx="2"/>
  
  <!-- Doctor Name -->
  <rect x="55" y="20" width="160" height="16" fill="#ffffff" rx="2"/>
  <rect x="55" y="40" width="120" height="12" fill="#ffffff" opacity="0.9" rx="2"/>
  
  <!-- Contact Info -->
  <rect x="20" y="80" width="260" height="25" fill="#f0f9ff" stroke="#0ea5e9" stroke-width="1"/>
  
  <!-- Contact Details -->
  <circle cx="35" cy="92" r="3" fill="#0ea5e9"/>
  <rect x="45" y="89" width="70" height="6" fill="#0369a1" rx="1"/>
  
  <circle cx="130" cy="92" r="3" fill="#0ea5e9"/>
  <rect x="140" y="89" width="60" height="6" fill="#0369a1" rx="1"/>
  
  <circle cx="220" cy="92" r="3" fill="#0ea5e9"/>
  <rect x="230" y="89" width="50" height="6" fill="#0369a1" rx="1"/>
  
  <!-- Professional Summary -->
  <rect x="20" y="125" width="140" height="12" fill="#0ea5e9" rx="2"/>
  <line x1="20" y1="145" x2="280" y2="145" stroke="#0ea5e9" stroke-width="2"/>
  
  <rect x="20" y="160" width="260" height="6" fill="#374151" rx="1"/>
  <rect x="20" y="170" width="240" height="6" fill="#374151" rx="1"/>
  <rect x="20" y="180" width="220" height="6" fill="#374151" rx="1"/>
  
  <!-- Medical Experience -->
  <rect x="20" y="205" width="120" height="12" fill="#0ea5e9" rx="2"/>
  <line x1="20" y1="225" x2="280" y2="225" stroke="#0ea5e9" stroke-width="2"/>
  
  <!-- Experience Entry 1 -->
  <rect x="20" y="240" width="140" height="10" fill="#1f2937" rx="2"/>
  <rect x="20" y="255" width="110" height="8" fill="#4b5563" rx="1"/>
  <rect x="20" y="270" width="220" height="5" fill="#6b7280" rx="1"/>
  <rect x="20" y="280" width="200" height="5" fill="#6b7280" rx="1"/>
  <rect x="20" y="290" width="180" height="5" fill="#6b7280" rx="1"/>
  
  <!-- Experience Entry 2 -->
  <rect x="20" y="310" width="130" height="10" fill="#1f2937" rx="2"/>
  <rect x="20" y="325" width="100" height="8" fill="#4b5563" rx="1"/>
  <rect x="20" y="340" width="210" height="5" fill="#6b7280" rx="1"/>
  <rect x="20" y="350" width="190" height="5" fill="#6b7280" rx="1"/>
  
  <!-- Medical Specializations Sidebar -->
  <rect x="200" y="125" width="80" height="250" fill="#f0f9ff" stroke="#0ea5e9" stroke-width="1"/>
  
  <!-- Specializations -->
  <rect x="210" y="140" width="60" height="10" fill="#0ea5e9" rx="2"/>
  <line x1="210" y1="160" x2="270" y2="160" stroke="#0ea5e9" stroke-width="1"/>
  
  <rect x="210" y="175" width="55" height="8" fill="#1f2937" rx="1"/>
  <rect x="210" y="190" width="50" height="8" fill="#1f2937" rx="1"/>
  <rect x="210" y="205" width="45" height="8" fill="#1f2937" rx="1"/>
  
  <!-- Medical Education -->
  <rect x="210" y="230" width="50" height="10" fill="#0ea5e9" rx="2"/>
  <line x1="210" y1="250" x2="270" y2="250" stroke="#0ea5e9" stroke-width="1"/>
  
  <rect x="210" y="265" width="55" height="8" fill="#1f2937" rx="1"/>
  <rect x="210" y="280" width="50" height="6" fill="#4b5563" rx="1"/>
  
  <!-- Certifications -->
  <rect x="210" y="305" width="60" height="10" fill="#0ea5e9" rx="2"/>
  <line x1="210" y1="325" x2="270" y2="325" stroke="#0ea5e9" stroke-width="1"/>
  
  <rect x="210" y="340" width="50" height="6" fill="#1f2937" rx="1"/>
  <rect x="210" y="355" width="45" height="6" fill="#1f2937" rx="1"/>
  
  <!-- Medical Icons -->
  <circle cx="270" cy="180" r="4" fill="#0ea5e9" opacity="0.3"/>
  <rect x="266" y="200" width="8" height="8" fill="#0ea5e9" opacity="0.3" rx="2"/>
  
  <!-- Medical Border Accents -->
  <rect x="0" y="0" width="300" height="3" fill="#0ea5e9"/>
  <rect x="0" y="397" width="300" height="3" fill="#0ea5e9"/>
  
  <!-- Stethoscope Icon (simplified) -->
  <circle cx="260" cy="30" r="6" fill="#ffffff" opacity="0.8"/>
  <circle cx="260" cy="30" r="3" fill="#0ea5e9"/>
  <path d="M254 30 Q250 35 250 40" stroke="#ffffff" stroke-width="2" fill="none" opacity="0.8"/>
</svg>