<svg width="300" height="400" viewBox="0 0 300 400" xmlns="http://www.w3.org/2000/svg">
  <!-- Background -->
  <rect width="300" height="400" fill="#ffffff"/>
  
  <!-- Professional Header -->
  <rect x="0" y="0" width="300" height="80" fill="#1e40af"/>
  
  <!-- Header Content -->
  <rect x="20" y="20" width="260" height="40" fill="#1e40af"/>
  
  <!-- Profile Photo -->
  <circle cx="50" cy="40" r="18" fill="#ffffff" opacity="0.9"/>
  <circle cx="50" cy="40" r="15" fill="#f1f5f9"/>
  
  <!-- Name -->
  <rect x="80" y="25" width="140" height="14" fill="#ffffff" rx="2"/>
  
  <!-- Title -->
  <rect x="80" y="45" width="100" height="10" fill="#ffffff" opacity="0.8" rx="2"/>
  
  <!-- Contact Bar -->
  <rect x="20" y="90" width="260" height="30" fill="#f8fafc" stroke="#e2e8f0" stroke-width="1"/>
  
  <!-- Contact Icons -->
  <circle cx="35" cy="105" r="4" fill="#1e40af"/>
  <rect x="50" y="102" width="60" height="6" fill="#64748b" rx="1"/>
  
  <circle cx="130" cy="105" r="4" fill="#1e40af"/>
  <rect x="145" y="102" width="70" height="6" fill="#64748b" rx="1"/>
  
  <circle cx="235" cy="105" r="4" fill="#1e40af"/>
  <rect x="250" y="102" width="30" height="6" fill="#64748b" rx="1"/>
  
  <!-- Main Content Area -->
  <rect x="20" y="140" width="260" height="240" fill="#ffffff"/>
  
  <!-- Professional Summary Section -->
  <rect x="30" y="150" width="120" height="12" fill="#1e40af" rx="2"/>
  <line x1="30" y1="170" x2="270" y2="170" stroke="#1e40af" stroke-width="2"/>
  
  <rect x="30" y="185" width="240" height="6" fill="#374151" rx="1"/>
  <rect x="30" y="195" width="220" height="6" fill="#374151" rx="1"/>
  <rect x="30" y="205" width="200" height="6" fill="#374151" rx="1"/>
  
  <!-- Experience Section -->
  <rect x="30" y="230" width="100" height="12" fill="#1e40af" rx="2"/>
  <line x1="30" y1="250" x2="270" y2="250" stroke="#1e40af" stroke-width="2"/>
  
  <!-- Experience Entry 1 -->
  <rect x="30" y="265" width="120" height="10" fill="#1f2937" rx="2"/>
  <rect x="30" y="280" width="100" height="8" fill="#4b5563" rx="1"/>
  <rect x="30" y="295" width="200" height="5" fill="#6b7280" rx="1"/>
  <rect x="30" y="305" width="180" height="5" fill="#6b7280" rx="1"/>
  
  <!-- Experience Entry 2 -->
  <rect x="30" y="325" width="110" height="10" fill="#1f2937" rx="2"/>
  <rect x="30" y="340" width="90" height="8" fill="#4b5563" rx="1"/>
  <rect x="30" y="355" width="190" height="5" fill="#6b7280" rx="1"/>
  
  <!-- Right Sidebar -->
  <rect x="200" y="140" width="80" height="240" fill="#f8fafc" stroke="#e2e8f0" stroke-width="1"/>
  
  <!-- Skills Section -->
  <rect x="210" y="155" width="50" height="10" fill="#1e40af" rx="2"/>
  <line x1="210" y1="175" x2="270" y2="175" stroke="#1e40af" stroke-width="1"/>
  
  <!-- Professional Skills -->
  <rect x="210" y="190" width="60" height="8" fill="#1f2937" rx="1"/>
  <rect x="210" y="205" width="55" height="8" fill="#1f2937" rx="1"/>
  <rect x="210" y="220" width="50" height="8" fill="#1f2937" rx="1"/>
  <rect x="210" y="235" width="45" height="8" fill="#1f2937" rx="1"/>
  
  <!-- Education Section -->
  <rect x="210" y="260" width="60" height="10" fill="#1e40af" rx="2"/>
  <line x1="210" y1="280" x2="270" y2="280" stroke="#1e40af" stroke-width="1"/>
  
  <rect x="210" y="295" width="55" height="8" fill="#1f2937" rx="1"/>
  <rect x="210" y="310" width="50" height="6" fill="#4b5563" rx="1"/>
  
  <!-- Certifications -->
  <rect x="210" y="335" width="60" height="10" fill="#1e40af" rx="2"/>
  <line x1="210" y1="355" x2="270" y2="355" stroke="#1e40af" stroke-width="1"/>
  
  <rect x="210" y="365" width="50" height="6" fill="#1f2937" rx="1"/>
  
  <!-- Professional Accents -->
  <rect x="0" y="0" width="300" height="4" fill="#1e40af"/>
  <rect x="0" y="396" width="300" height="4" fill="#1e40af"/>
  
  <!-- Business Icons -->
  <rect x="270" y="150" width="8" height="8" fill="#1e40af" opacity="0.3" rx="2"/>
  <circle cx="275" cy="180" r="3" fill="#1e40af" opacity="0.5"/>
</svg>