<svg width="300" height="400" viewBox="0 0 300 400" xmlns="http://www.w3.org/2000/svg">
  <!-- Background -->
  <rect width="300" height="400" fill="#ffffff"/>
  
  <!-- Agriculture Header -->
  <rect x="0" y="0" width="300" height="70" fill="#16a34a"/>
  
  <!-- Plant/Leaf Icon -->
  <path d="M25 35 Q30 25 40 30 Q45 35 40 45 Q35 50 25 45 Q20 40 25 35 Z" fill="#ffffff" opacity="0.9"/>
  <path d="M32 35 Q37 30 42 35" stroke="#16a34a" stroke-width="1" fill="none" opacity="0.7"/>
  <path d="M30 40 Q35 37 40 40" stroke="#16a34a" stroke-width="1" fill="none" opacity="0.7"/>
  
  <!-- Agriculture Professional Name -->
  <rect x="55" y="20" width="180" height="16" fill="#ffffff" rx="2"/>
  <rect x="55" y="40" width="140" height="12" fill="#ffffff" opacity="0.9" rx="2"/>
  
  <!-- Professional Contact Bar -->
  <rect x="20" y="80" width="260" height="25" fill="#f0fdf4" stroke="#16a34a" stroke-width="1"/>
  
  <!-- Contact Information -->
  <circle cx="35" cy="92" r="3" fill="#16a34a"/>
  <rect x="45" y="89" width="70" height="6" fill="#15803d" rx="1"/>
  
  <circle cx="130" cy="92" r="3" fill="#16a34a"/>
  <rect x="140" y="89" width="60" height="6" fill="#15803d" rx="1"/>
  
  <circle cx="220" cy="92" r="3" fill="#16a34a"/>
  <rect x="230" y="89" width="50" height="6" fill="#15803d" rx="1"/>
  
  <!-- Professional Summary -->
  <rect x="20" y="125" width="150" height="12" fill="#16a34a" rx="2"/>
  <line x1="20" y1="145" x2="280" y2="145" stroke="#16a34a" stroke-width="2"/>
  
  <rect x="20" y="160" width="260" height="6" fill="#374151" rx="1"/>
  <rect x="20" y="170" width="240" height="6" fill="#374151" rx="1"/>
  <rect x="20" y="180" width="220" height="6" fill="#374151" rx="1"/>
  
  <!-- Agriculture Experience -->
  <rect x="20" y="205" width="140" height="12" fill="#16a34a" rx="2"/>
  <line x1="20" y1="225" x2="280" y2="225" stroke="#16a34a" stroke-width="2"/>
  
  <!-- Experience Entry 1 -->
  <rect x="20" y="240" width="160" height="10" fill="#1f2937" rx="2"/>
  <rect x="20" y="255" width="130" height="8" fill="#4b5563" rx="1"/>
  <rect x="20" y="270" width="240" height="5" fill="#6b7280" rx="1"/>
  <rect x="20" y="280" width="220" height="5" fill="#6b7280" rx="1"/>
  <rect x="20" y="290" width="200" height="5" fill="#6b7280" rx="1"/>
  
  <!-- Experience Entry 2 -->
  <rect x="20" y="310" width="150" height="10" fill="#1f2937" rx="2"/>
  <rect x="20" y="325" width="120" height="8" fill="#4b5563" rx="1"/>
  <rect x="20" y="340" width="230" height="5" fill="#6b7280" rx="1"/>
  <rect x="20" y="350" width="210" height="5" fill="#6b7280" rx="1"/>
  
  <!-- Agriculture Skills Sidebar -->
  <rect x="200" y="125" width="80" height="250" fill="#f0fdf4" stroke="#16a34a" stroke-width="1"/>
  
  <!-- Technical Skills -->
  <rect x="210" y="140" width="60" height="10" fill="#16a34a" rx="2"/>
  <line x1="210" y1="160" x2="270" y2="160" stroke="#16a34a" stroke-width="1"/>
  
  <rect x="210" y="175" width="55" height="8" fill="#1f2937" rx="1"/>
  <rect x="210" y="190" width="50" height="8" fill="#1f2937" rx="1"/>
  <rect x="210" y="205" width="45" height="8" fill="#1f2937" rx="1"/>
  <rect x="210" y="220" width="40" height="8" fill="#1f2937" rx="1"/>
  
  <!-- Certifications -->
  <rect x="210" y="245" width="50" height="10" fill="#16a34a" rx="2"/>
  <line x1="210" y1="265" x2="270" y2="265" stroke="#16a34a" stroke-width="1"/>
  
  <!-- Certification Items -->
  <rect x="210" y="280" width="55" height="8" fill="#1f2937" rx="1"/>
  <rect x="210" y="295" width="50" height="6" fill="#4b5563" rx="1"/>
  <rect x="210" y="310" width="45" height="6" fill="#4b5563" rx="1"/>
  
  <!-- Projects -->
  <rect x="210" y="335" width="60" height="10" fill="#16a34a" rx="2"/>
  <line x1="210" y1="355" x2="270" y2="355" stroke="#16a34a" stroke-width="1"/>
  
  <!-- Agriculture Icons -->
  <circle cx="270" cy="180" r="4" fill="#16a34a" opacity="0.3"/>
  <rect x="266" y="200" width="8" height="8" fill="#16a34a" opacity="0.3" rx="2"/>
  
  <!-- Agriculture Border Accents -->
  <rect x="0" y="0" width="300" height="3" fill="#16a34a"/>
  <rect x="0" y="397" width="300" height="3" fill="#16a34a"/>
  
  <!-- Tractor/Farm Icon -->
  <circle cx="265" cy="30" r="6" fill="#ffffff" opacity="0.8"/>
  <circle cx="275" cy="30" r="4" fill="#ffffff" opacity="0.8"/>
  <rect x="260" y="27" width="10" height="6" fill="#ffffff" opacity="0.8" rx="1"/>
  
  <!-- Wheat/Grain Icon -->
  <path d="M250 35 L252 25 L254 35 L252 45 Z" fill="#ffffff" opacity="0.7"/>
  <path d="M248 30 L250 35 L252 30" stroke="#ffffff" stroke-width="1" opacity="0.7"/>
  <path d="M254 30 L252 35 L254 40" stroke="#ffffff" stroke-width="1" opacity="0.7"/>
</svg>